<?xml version="1.0" encoding="utf-8"?>
<!-- Generator: Adobe Illustrator 23.0.3, SVG Export Plug-In . SVG Version: 6.00 Build 0)  -->
<svg version="1.1" id="Capa_1" xmlns="http://www.w3.org/2000/svg" xmlns:xlink="http://www.w3.org/1999/xlink" x="0px" y="0px"
	 viewBox="0 0 512 512" style="enable-background:new 0 0 512 512;" xml:space="preserve">
<style type="text/css">
	.st0{fill:#FFFFFF;}
</style>
<g>
	<g>
		<path class="st0" d="M443.2,442.2L416,142.6c-0.8-8.3-7.7-14.6-16-14.6h-48V96c0-25.7-10-49.9-28-68C305.9,10,281.7,0,256,0
			c-52.9,0-96,43.1-96,96v32h-48c-8.3,0-15.2,6.3-15.9,14.6L68.8,442.2c-1.6,17.9,4.4,35.7,16.5,49s29.3,20.8,47.3,20.8h246.9
			c18,0,35.2-7.6,47.3-20.8S444.8,460.1,443.2,442.2z M192,96c0-35.3,28.7-64,64-64c17.2,0,33.3,6.6,45.3,18.7S320,78.8,320,96v32
			H192V96z M403.1,469.6c-6.1,6.7-14.5,10.4-23.6,10.4H132.6c-9.1,0-17.5-3.7-23.6-10.4c-6.1-6.7-9.1-15.4-8.2-24.5L126.6,160H160
			v48c0,8.8,7.2,16,16,16s16-7.2,16-16v-48h128v48c0,8.8,7.2,16,16,16s16-7.2,16-16v-48h33.4l25.9,285.1
			C412.1,454.2,409.2,462.9,403.1,469.6z"/>
	</g>
</g>
</svg>
