<svg width="28" height="28" viewBox="0 0 28 28" fill="none" xmlns="http://www.w3.org/2000/svg">
<path d="M14 0C6.28036 0 0 6.28036 0 14C0 21.7196 6.28036 28 14 28C21.7196 28 28 21.7196 28 14C28 6.28036 21.7196 0 14 0ZM14 26.3982C7.16356 26.3982 1.60177 20.8364 1.60177 14C1.60177 7.16365 7.16356 1.60177 14 1.60177C20.8364 1.60177 26.3982 7.16365 26.3982 14C26.3982 20.8364 20.8364 26.3982 14 26.3982Z" fill="white"/>
<path d="M17.2425 6.40283H15.3441C13.7903 6.40283 12.5261 7.66698 12.5261 9.22079V11.3565H10.7575C10.3151 11.3565 9.9566 11.715 9.9566 12.1574C9.9566 12.5997 10.3151 12.9583 10.7575 12.9583H12.5261V20.3738C12.5261 20.8162 12.8846 21.1747 13.327 21.1747C13.7693 21.1747 14.1279 20.8162 14.1279 20.3738V12.9583H16.8642C17.3066 12.9583 17.6651 12.5997 17.6651 12.1574C17.6651 11.715 17.3066 11.3565 16.8642 11.3565H14.1279V9.22079C14.1279 8.55018 14.6735 8.0046 15.3441 8.0046H17.2424C17.6848 8.0046 18.0433 7.64607 18.0433 7.20372C18.0433 6.76136 17.6848 6.40283 17.2425 6.40283Z" fill="white"/>
</svg>
