<svg width="28" height="28" viewBox="0 0 28 28" fill="none" xmlns="http://www.w3.org/2000/svg">
<path d="M23.8995 4.10052C21.2552 1.45622 17.7395 0 14 0C10.2605 0 6.74477 1.45622 4.10052 4.10052C1.45622 6.74477 0 10.2605 0 14C0 17.7395 1.45622 21.2552 4.10052 23.8995C6.74477 26.5438 10.2605 28 14 28C17.7395 28 21.2552 26.5438 23.8995 23.8995C26.5437 21.2552 28 17.7395 28 14C28 10.2605 26.5438 6.74477 23.8995 4.10052ZM14 27.1158C6.76791 27.1158 0.884187 21.2321 0.884187 14C0.884187 6.76791 6.76791 0.884187 14 0.884187C21.2321 0.884187 27.1158 6.76791 27.1158 14C27.1158 21.2321 21.2321 27.1158 14 27.1158Z" fill="white"/>
<path d="M19.0228 5.30518H8.97724C6.95249 5.30518 5.3053 6.95242 5.3053 8.97711V19.0228C5.3053 21.0474 6.95254 22.6947 8.97724 22.6947H19.0229C21.0475 22.6947 22.6948 21.0474 22.6948 19.0227V8.97711C22.6947 6.95236 21.0475 5.30518 19.0228 5.30518ZM21.8105 19.0227C21.8105 20.5598 20.5599 21.8104 19.0228 21.8104H8.97724C7.44008 21.8104 6.18949 20.5598 6.18949 19.0227V8.97711C6.18949 7.43996 7.44008 6.18936 8.97724 6.18936H19.0229C20.56 6.18936 21.8106 7.43996 21.8106 8.97711V19.0227H21.8105Z" fill="white"/>
<path d="M18.5611 13.7386C18.4303 11.4126 16.5375 9.54133 14.2102 9.43639C11.5246 9.31531 9.31379 11.5272 9.43645 14.2131C9.54282 16.5406 11.4156 18.4325 13.7419 18.5613C14.7236 18.6157 15.6429 18.3575 16.4108 17.8781C16.65 17.7287 16.689 17.396 16.4896 17.1967C16.4875 17.1946 16.4854 17.1925 16.4833 17.1904C16.338 17.0451 16.1126 17.0231 15.938 17.1316C15.3643 17.4881 14.6861 17.6917 13.9606 17.6841C11.9123 17.6625 10.2596 15.9426 10.3173 13.895C10.3753 11.8343 12.1337 10.1915 14.236 10.3233C16.0476 10.4368 17.5222 11.8813 17.6715 13.6903C17.7322 14.4272 17.5737 15.1234 17.2553 15.7223C17.1641 15.8938 17.1922 16.1042 17.3296 16.2415C17.3318 16.2437 17.3341 16.246 17.3363 16.2483C17.5427 16.4546 17.8916 16.4061 18.0295 16.1489C18.4113 15.4366 18.6102 14.6123 18.5611 13.7386Z" fill="white"/>
<path d="M18.7158 9.87378C19.3669 9.87378 19.8948 9.34594 19.8948 8.69482C19.8948 8.0437 19.3669 7.51587 18.7158 7.51587C18.0647 7.51587 17.5369 8.0437 17.5369 8.69482C17.5369 9.34594 18.0647 9.87378 18.7158 9.87378Z" fill="white"/>
</svg>
